<?xml version="1.0"?>
<svg xmlns="http://www.w3.org/2000/svg" height="512px" viewBox="0 -62 512 512" width="512px"><g><path d="m387.171875 152.84375h-262.34375c-5.523437 0-10-4.476562-10-10v-39c0-5.523438 4.476563-10 10-10h262.34375c5.523437 0 10 4.476562 10 10v39c0 5.523438-4.476563 10-10 10zm-252.34375-20h242.34375v-19h-242.34375zm0 0" data-original="#000000" class="active-path" data-old_color="#000000" fill="#FFFFFF"/><path d="m142.511719 201.515625c-2.632813 0-5.210938-1.070313-7.070313-2.929687-1.863281-1.859376-2.929687-4.441407-2.929687-7.070313 0-.652344.058593-1.3125.1875-1.949219.128906-.640625.320312-1.269531.570312-1.871094.25-.609374.558594-1.191406.921875-1.730468.367188-.550782.789063-1.058594 1.25-1.519532 2.320313-2.320312 5.769532-3.390624 9.019532-2.730468.640624.121094 1.269531.320312 1.867187.570312.613281.25 1.191406.558594 1.730469.910156.550781.371094 1.058594.789063 1.519531 1.25.460937.460938.882813.96875 1.242187 1.519532.359376.539062.667969 1.121094.917969 1.730468.25.601563.441407 1.230469.570313 1.871094.132812.636719.203125 1.296875.203125 1.949219 0 2.628906-1.070313 5.210937-2.933594 7.070313-.457031.460937-.96875.878906-1.519531 1.238281-.539063.359375-1.117188.671875-1.730469.921875-.597656.25-1.226563.449218-1.867187.570312-.640626.128906-1.300782.199219-1.949219.199219zm0 0" data-original="#000000" class="active-path" data-old_color="#000000" fill="#FFFFFF"/><path d="m263.835938 245.011719h-121.328126c-5.523437 0-10-4.476563-10-10 0-5.523438 4.476563-10 10-10h121.328126c5.523437 0 10 4.476562 10 10 0 5.523437-4.480469 10-10 10zm0 0" data-original="#000000" class="active-path" data-old_color="#000000" fill="#FFFFFF"/><path d="m502 0h-492c-5.523438 0-10 4.476562-10 10v335.710938c0 5.523437 4.476562 10 10 10h299.816406v21.519531c0 3.59375 1.925782 6.910156 5.046875 8.6875 3.121094 1.777343 6.957031 1.746093 10.046875-.082031l29.238282-17.320313 29.5625 17.339844c1.558593.917969 3.308593 1.375 5.058593 1.375 1.714844 0 3.429688-.441407 4.96875-1.324219 3.113281-1.78125 5.03125-5.089844 5.03125-8.675781v-21.519531h103.230469c5.523438 0 10-4.476563 10-10v-335.710938c0-5.523438-4.476562-10-10-10zm-191.640625 245.445312c0-24.222656 19.707031-43.929687 43.933594-43.929687 24.222656 0 43.929687 19.707031 43.929687 43.929687 0 24.226563-19.707031 43.933594-43.929687 43.933594-24.222657 0-43.933594-19.710937-43.933594-43.933594zm88.410156 45.882813c11.992188-11.628906 19.453125-27.898437 19.453125-45.882813 0-35.25-28.675781-63.929687-63.929687-63.929687h-168.785157c-5.523437 0-10 4.476563-10 10s4.476563 10 10 10h122.378907c-10.855469 11.460937-17.523438 26.933594-17.523438 43.929687 0 17.984376 7.460938 34.253907 19.453125 45.882813v4.382813h-214.914062c-3.863282-17.351563-17.550782-31.042969-34.902344-34.902344v-165.90625c17.351562-3.859375 31.039062-17.550782 34.902344-34.902344h322.195312c3.859375 17.351562 17.550782 31.042969 34.902344 34.902344v165.90625c-17.351562 3.863281-31.042969 17.550781-34.902344 34.902344h-18.328125zm-39.582031 56.953125c-3.136719-1.84375-7.027344-1.832031-10.160156.019531l-19.210938 11.382813v-55.179688c7.542969 3.140625 15.808594 4.871094 24.476563 4.871094 8.664062 0 16.933593-1.730469 24.476562-4.871094v55.265625zm132.8125-12.570312h-93.230469v-20h27.234375c5.523438 0 10-4.476563 10-10 0-14.335938 11.660156-25.996094 25.996094-25.996094 5.523438 0 10-4.480469 10-10v-183.71875c0-5.519532-4.476562-10-10-10-14.335938 0-25.996094-11.660156-25.996094-25.996094 0-5.523438-4.476562-10-10-10h-340.007812c-5.519532 0-10 4.476562-10 10 0 14.335938-11.660156 25.996094-25.996094 25.996094-5.523438 0-10 4.480468-10 10v183.714844c0 5.523437 4.476562 10 10 10 14.335938 0 25.996094 11.664062 25.996094 26 0 5.523437 4.480468 10 10 10h223.820312v20h-289.816406v-315.710938h472zm0 0" data-original="#000000" class="active-path" data-old_color="#000000" fill="#FFFFFF"/></g> </svg>
