<?xml version="1.0"?>
<svg xmlns="http://www.w3.org/2000/svg" height="512px" viewBox="0 -17 474.224 474" width="512px"><g><path d="m474.222656 163.222656-7.613281-2.460937-2.609375-7.5625-1.542969.527343 2.597657-3.757812-19.757813-13.601562-9.089844 13.144531 12.800781 8.847656-43.777343 15.097656c-4.78125-7.304687-12.363281-12.316406-20.957031-13.855469-8.59375-1.539062-17.445313.527344-24.464844 5.71875l-96.257813-79.128906c1.996094-4.199218 3.039063-8.785156 3.058594-13.429687-.054687-14.550781-9.914063-27.230469-24-30.867188v-25.894531l15.789063 10.886719 9.082031-13.175781-19.753907-13.597657-5.117187 7.390625v-6.742187h-16v12.328125l-7.730469-11.203125-19.757812 13.601562 9.085937 13.199219 18.402344-12.726562v25.902343c-8.480469 2.039063-15.726563 7.523438-19.996094 15.128907-4.269531 7.609374-5.171875 16.652343-2.492187 24.953124l-123.28125 75.199219c-6.804688-6.648437-16.222656-9.90625-25.683594-8.886719-9.457031 1.019532-17.964844 6.210938-23.195312 14.15625l-11.753907-4.054687 10.21875-7.046875-9.113281-13.167969-19.761719 13.597657 2.777344 4-4.328125 12.539062 26.855469 9.277344c-.0625.800781-.246094 1.601562-.246094 2.488281 0 17.675781 14.324219 32 32 32 2.84375-.039063 5.675781-.460937 8.40625-1.261719l65.265625 113.757813c-11.835938 11.402343-12.953125 29.976562-2.570312 42.714843l-36.238282 48.335938-3.289062-10.167969-15.199219 4.917969 7.390625 22.839844 6.191406-2.007813 8.472656 6.398438 45.425782-60.566407c15.917968 6.605469 34.203125-.65625 41.253906-16.382812l123.203125 21.421875c.773437 10.171875 6.378906 19.355469 15.070313 24.691406 8.695312 5.335938 19.417968 6.179688 28.839843 2.269531l11.777344 15.753907h-10.121094v16h24v-6.402344l8.519531-6.398437-21.511718-28.671876c6.101562-7.480468 8.449218-17.339843 6.371094-26.765624-2.074219-9.425782-8.347657-17.386719-17.027344-21.613282l27.199218-127.949218c17.058594-.765626 30.507813-14.785157 30.570313-31.855469 0-.847657-.183594-1.648438-.25-2.480469l43.703125-15.066406-2.453125 7.585937 15.199219 4.917969zm-415.613281 32.847656c-8.839844 0-16-7.160156-16-16 0-8.835937 7.160156-16 16-16 8.835937 0 16 7.164063 16 16 0 8.839844-7.164063 16-16 16zm291.054687-18.398437c-1.992187 4.199219-3.035156 8.785156-3.054687 13.433594 0 .847656.183594 1.65625.246094 2.488281l-104.246094 35.964844v-125.933594c3.878906-1 7.535156-2.722656 10.773437-5.082031zm-115.054687-120.910156c8.835937 0 16 7.160156 16 16 0 8.835937-7.164063 16-16 16-8.839844 0-16-7.164063-16-16 0-8.839844 7.160156-16 16-16zm-22.242187 38.925781c3.980468 3.835938 8.886718 6.570312 14.242187 7.9375v125.933594l-136.25-47c.066406-.839844.25-1.636719.25-2.488282-.046875-3.128906-.558594-6.234374-1.511719-9.214843zm-57.757813 267.738281c-8.839844 0-16-7.164062-16-16 0-8.839843 7.160156-16 16-16 8.835937 0 16 7.160157 16 16 0 8.835938-7.164063 16-16 16zm12.175781-45.601562c-3.863281-1.589844-8-2.40625-12.175781-2.398438-2.847656.035157-5.675781.460938-8.410156 1.261719l-65.261719-113.757812c1.617188-1.582032 3.066406-3.328126 4.320312-5.210938l136.367188 47.042969zm142.742188 48.390625-123.199219-21.421875c-.503906-6.308594-2.886719-12.316407-6.839844-17.257813l55.121094-73.4375 79.101563 105.46875c-1.667969 2.046875-3.070313 4.289063-4.183594 6.679688zm45.082031 13.210937c0 8.835938-7.164063 16-16 16-8.839844 0-16-7.164062-16-16 0-8.839843 7.160156-16 16-16 8.835937 0 16 7.160157 16 16zm-17.410156-31.859375c-3.695313.132813-7.335938.910156-10.765625 2.289063l-78.839844-105.09375 104.367188-36c3.125 4.632812 7.402343 8.375 12.414062 10.855469zm41.410156-140.460937c-8.839844 0-16-7.164063-16-16 0-8.839844 7.160156-16 16-16 8.835937 0 16 7.160156 16 16 0 8.835937-7.164063 16-16 16zm0 0" data-original="#000000" class="active-path" data-old_color="#000000" fill="#FFFFFF"/><path d="m392.511719 363.808594 7.382812-22.839844 15.222657 4.921875-7.382813 22.835937zm0 0" data-original="#000000" class="active-path" data-old_color="#000000" fill="#FFFFFF"/><path d="m407.277344 318.136719 7.394531-22.832031 15.222656 4.929687-7.398437 22.832031zm0 0" data-original="#000000" class="active-path" data-old_color="#000000" fill="#FFFFFF"/><path d="m377.734375 409.472656 7.394531-22.832031 15.222656 4.929687-7.394531 22.832032zm0 0" data-original="#000000" class="active-path" data-old_color="#000000" fill="#FFFFFF"/><path d="m422.0625 272.464844 7.378906-22.835938 15.226563 4.921875-7.382813 22.835938zm0 0" data-original="#000000" class="active-path" data-old_color="#000000" fill="#FFFFFF"/><path d="m436.835938 226.804688 7.394531-22.832032 15.21875 4.929688-7.394531 22.832031zm0 0" data-original="#000000" class="active-path" data-old_color="#000000" fill="#FFFFFF"/><path d="m357.183594 95.015625 9.082031-13.171875 19.757813 13.625-9.082032 13.171875zm0 0" data-original="#000000" class="active-path" data-old_color="#000000" fill="#FFFFFF"/><path d="m45.40625 319.035156 15.226562-4.925781 7.386719 22.835937-15.222656 4.925782zm0 0" data-original="#000000" class="active-path" data-old_color="#000000" fill="#FFFFFF"/><path d="m159.609375 42.765625 19.753906-13.628906 9.085938 13.171875-19.757813 13.625zm0 0" data-original="#000000" class="active-path" data-old_color="#000000" fill="#FFFFFF"/><path d="m120.097656 70.011719 19.757813-13.625 9.082031 13.171875-19.757812 13.625zm0 0" data-original="#000000" class="active-path" data-old_color="#000000" fill="#FFFFFF"/><path d="m60.183594 364.703125 15.222656-4.925781 7.394531 22.832031-15.222656 4.929687zm0 0" data-original="#000000" class="active-path" data-old_color="#000000" fill="#FFFFFF"/><path d="m41.066406 124.515625 19.757813-13.625 9.082031 13.171875-19.757812 13.625zm0 0" data-original="#000000" class="active-path" data-old_color="#000000" fill="#FFFFFF"/><path d="m278.152344 40.507812 9.085937-13.171874 19.753907 13.628906-9.085938 13.167968zm0 0" data-original="#000000" class="active-path" data-old_color="#000000" fill="#FFFFFF"/><path d="m396.691406 122.261719 9.085938-13.171875 19.753906 13.625-9.082031 13.171875zm0 0" data-original="#000000" class="active-path" data-old_color="#000000" fill="#FFFFFF"/><path d="m317.664062 67.757812 9.085938-13.171874 19.753906 13.628906-9.082031 13.171875zm0 0" data-original="#000000" class="active-path" data-old_color="#000000" fill="#FFFFFF"/><path d="m1.078125 182.019531 15.222656-4.925781 7.386719 22.835938-15.222656 4.925781zm0 0" data-original="#000000" class="active-path" data-old_color="#000000" fill="#FFFFFF"/><path d="m208.488281 424.761719h24v16h-24zm0 0" data-original="#000000" class="active-path" data-old_color="#000000" fill="#FFFFFF"/><path d="m160.488281 424.761719h24v16h-24zm0 0" data-original="#000000" class="active-path" data-old_color="#000000" fill="#FFFFFF"/><path d="m256.488281 424.761719h24v16h-24zm0 0" data-original="#000000" class="active-path" data-old_color="#000000" fill="#FFFFFF"/><path d="m30.632812 273.363281 15.222657-4.925781 7.390625 22.832031-15.222656 4.925781zm0 0" data-original="#000000" class="active-path" data-old_color="#000000" fill="#FFFFFF"/><path d="m112.488281 424.761719h24v16h-24zm0 0" data-original="#000000" class="active-path" data-old_color="#000000" fill="#FFFFFF"/><path d="m304.488281 424.761719h24v16h-24zm0 0" data-original="#000000" class="active-path" data-old_color="#000000" fill="#FFFFFF"/><path d="m15.851562 227.695312 15.226563-4.925781 7.386719 22.835938-15.222656 4.925781zm0 0" data-original="#000000" class="active-path" data-old_color="#000000" fill="#FFFFFF"/><path d="m80.578125 97.269531 19.753906-13.625 9.085938 13.167969-19.753907 13.628906zm0 0" data-original="#000000" class="active-path" data-old_color="#000000" fill="#FFFFFF"/></g> </svg>
