<?xml version="1.0"?>
<svg xmlns="http://www.w3.org/2000/svg" xmlns:xlink="http://www.w3.org/1999/xlink" version="1.1" id="Layer_1" x="0px" y="0px" viewBox="0 0 512 512" style="enable-background:new 0 0 512 512;" xml:space="preserve" width="512px" height="512px"><g><g>
	<g>
		<path d="M179.161,72.785l-43.854-23.984L111.313,4.937c-3.592-6.583-14.431-6.583-18.023,0L69.295,48.801L25.441,72.785    c-3.301,1.801-5.349,5.258-5.349,9.016c0,3.758,2.047,7.215,5.349,9.017l43.854,23.989l23.994,43.859    c1.796,3.297,5.259,5.344,9.012,5.344c3.753,0,7.215-2.047,9.012-5.344l23.994-43.859l43.854-23.989    c3.301-1.801,5.349-5.258,5.349-9.017C184.509,78.044,182.462,74.586,179.161,72.785z M122.803,98.219    c-1.726,0.943-3.141,2.363-4.084,4.084l-16.417,30.015l-16.418-30.015c-0.943-1.721-2.358-3.141-4.084-4.084L51.784,81.802    l30.015-16.413c1.726-0.943,3.141-2.363,4.084-4.084l16.417-30.015l16.417,30.015c0.943,1.721,2.358,3.141,4.084,4.084    l30.015,16.413L122.803,98.219z" data-original="#000000" class="active-path" data-old_color="#000000" fill="#28B9EC"/>
	</g>
</g><g>
	<g>
		<path d="M323.025,350.238l-43.854-23.984l-23.994-43.864c-3.593-6.583-14.431-6.583-18.023,0l-23.994,43.864l-43.854,23.984    c-3.301,1.8-5.349,5.257-5.349,9.016c0,3.758,2.047,7.215,5.349,9.017l43.854,23.989l23.994,43.859    c1.796,3.297,5.258,5.344,9.012,5.344c3.753,0,7.215-2.047,9.012-5.344l23.994-43.859l43.854-23.989    c3.301-1.801,5.349-5.259,5.349-9.017C328.374,355.495,326.326,352.038,323.025,350.238z M266.667,375.672    c-1.726,0.942-3.141,2.363-4.084,4.084l-16.417,30.015l-16.417-30.015c-0.943-1.721-2.358-3.142-4.084-4.084l-30.015-16.417    l30.015-16.413c1.726-0.943,3.141-2.365,4.084-4.084l16.417-30.015l16.417,30.015c0.943,1.72,2.358,3.141,4.084,4.084    l30.015,16.413L266.667,375.672z" data-original="#000000" class="active-path" data-old_color="#000000" fill="#28B9EC"/>
	</g>
</g><g>
	<g>
		<path d="M486.558,442.209l-29.995-16.411l-16.418-30.005c-3.593-6.593-14.431-6.593-18.023,0l-16.417,30.005l-29.995,16.411    c-3.302,1.808-5.349,5.265-5.349,9.018c0,3.758,2.047,7.215,5.349,9.017l29.995,16.407l16.417,30.005    c1.796,3.297,5.259,5.344,9.012,5.344c3.753,0,7.215-2.047,9.012-5.344l16.418-30.005l29.995-16.407    c3.302-1.801,5.349-5.258,5.349-9.017C491.907,447.474,489.86,444.017,486.558,442.209z M444.059,460.063    c-1.726,0.943-3.141,2.363-4.084,4.084l-8.841,16.162l-8.841-16.162c-0.943-1.721-2.358-3.141-4.084-4.084l-16.157-8.836    l16.157-8.841c1.726-0.943,3.141-2.363,4.084-4.085l8.841-16.163l8.841,16.163c0.943,1.721,2.358,3.141,4.084,4.085l16.156,8.841    L444.059,460.063z" data-original="#000000" class="active-path" data-old_color="#000000" fill="#28B9EC"/>
	</g>
</g><g>
	<g>
		<path d="M339.683,186.683c0-5.675-4.596-10.276-10.276-10.276h-6.021l4.255-4.799c4.014-4.014,4.014-10.788,0-14.802    c-4.014-4.014-11.087-4.151-15.101-0.137l-4.824,4.119v-6.021c0-5.675-4.596-10.276-10.276-10.276s-10.276,4.601-10.276,10.276    v6.021l-3.685-4.255c-4.014-4.014-10.233-4.014-14.247,0c-4.014,4.014-3.871,11.06,0.143,15.074l4.395,4.799h-6.018    c-5.68,0-10.276,4.601-10.276,10.276c0,5.675,4.596,10.276,10.276,10.276h6.026l-4.26,3.716c-4.014,4.014-4.014,10.245,0,14.259    c2.007,2.008,4.636,2.875,7.265,2.875c2.629,0,4.689-1.071,6.696-3.078l3.685-4.324v6.017c0,5.675,4.596,10.276,10.276,10.276    s10.276-4.601,10.276-10.276v-6.017l4.824,4.256c2.007,2.007,4.92,3.011,7.549,3.011c2.629,0,5.401-1.003,7.409-3.011    c4.014-4.014,4.084-9.974,0.07-13.988l-4.187-3.716h6.026C335.087,196.959,339.683,192.358,339.683,186.683z" data-original="#000000" class="active-path" data-old_color="#000000" fill="#28B9EC"/>
	</g>
</g><g>
	<g>
		<path d="M82.783,381.928H71.368v-11.363c0-5.675-4.596-10.276-10.276-10.276s-10.276,4.601-10.276,10.276v11.363h-9.137    c-5.68,0-10.276,4.601-10.276,10.276s4.596,10.276,10.276,10.276h9.137v9.189c0,5.675,4.596,10.276,10.276,10.276    s10.276-4.601,10.276-10.276v-9.189h11.415c5.68,0,10.276-4.601,10.276-10.276S88.463,381.928,82.783,381.928z" data-original="#000000" class="active-path" data-old_color="#000000" fill="#28B9EC"/>
	</g>
</g><g>
	<g>
		<path d="M421.008,36.593l8.149-8.149c4.014-4.014,4.014-10.517,0-14.531c-4.014-4.014-10.517-4.014-14.531,0l-8.148,8.149    l-8.149-8.149c-4.014-4.014-10.517-4.014-14.531,0c-4.014,4.014-4.014,10.517,0,14.531l8.149,8.149l-8.149,8.148    c-4.014,4.014-4.014,10.517,0,14.531c2.007,2.007,4.636,3.011,7.266,3.011c2.629,0,5.258-1.004,7.265-3.011l8.149-8.149    l8.148,8.149c2.007,2.007,4.636,3.011,7.266,3.011c2.629,0,5.258-1.004,7.265-3.011c4.014-4.014,4.014-10.517,0-14.531    L421.008,36.593z" data-original="#000000" class="active-path" data-old_color="#000000" fill="#28B9EC"/>
	</g>
</g></g> </svg>
